<?xml version="1.0" encoding="UTF-8"?><svg xmlns="http://www.w3.org/2000/svg" xmlns:xlink="http://www.w3.org/1999/xlink" fill-opacity="1" color-rendering="auto" color-interpolation="auto" text-rendering="auto" stroke="black" stroke-linecap="square" width="622" stroke-miterlimit="10" shape-rendering="auto" stroke-opacity="1" fill="black" stroke-dasharray="none" font-weight="normal" stroke-width="1" height="551" font-family="'Dialog'" font-style="normal" stroke-linejoin="miter" font-size="12px" stroke-dashoffset="0" image-rendering="auto">
  <!--Generated by ySVG 2.6-->
  <defs id="genericDefs"/>
  <g>
    <defs id="defs1">
      <clipPath clipPathUnits="userSpaceOnUse" id="clipPath1">
        <path d="M0 0 L622 0 L622 551 L0 551 L0 0 Z"/>
      </clipPath>
      <clipPath clipPathUnits="userSpaceOnUse" id="clipPath2">
        <path d="M-74 232 L548 232 L548 783 L-74 783 L-74 232 Z"/>
      </clipPath>
    </defs>
    <g fill="white" text-rendering="geometricPrecision" shape-rendering="geometricPrecision" transform="translate(74,-232)" stroke="white">
      <rect x="-74" width="622" height="551" y="232" clip-path="url(#clipPath2)" stroke="none"/>
    </g>
    <g fill="white" text-rendering="geometricPrecision" shape-rendering="geometricPrecision" transform="matrix(1,0,0,1,74,-232)" stroke="white">
      <circle r="31.384" clip-path="url(#clipPath2)" cx="156.688" cy="278.544" stroke="none"/>
    </g>
    <g text-rendering="geometricPrecision" stroke-miterlimit="1.45" shape-rendering="geometricPrecision" transform="matrix(1,0,0,1,74,-232)" stroke-linecap="butt">
      <circle fill="none" r="31.384" clip-path="url(#clipPath2)" cx="156.688" cy="278.544"/>
      <text x="139.896" font-size="16px" y="283.744" clip-path="url(#clipPath2)" font-family="'CMU Sans Serif'" stroke="none" xml:space="preserve">Start</text>
    </g>
    <g fill="white" text-rendering="geometricPrecision" shape-rendering="geometricPrecision" transform="matrix(1,0,0,1,74,-232)" stroke="white">
      <circle r="31.384" clip-path="url(#clipPath2)" cx="156.688" cy="398.864" stroke="none"/>
    </g>
    <g text-rendering="geometricPrecision" stroke-miterlimit="1.45" shape-rendering="geometricPrecision" transform="matrix(1,0,0,1,74,-232)" stroke-linecap="butt">
      <circle fill="none" r="31.384" clip-path="url(#clipPath2)" cx="156.688" cy="398.864"/>
    </g>
    <g fill="white" text-rendering="geometricPrecision" shape-rendering="geometricPrecision" transform="matrix(1,0,0,1,74,-232)" stroke="white">
      <circle r="31.384" clip-path="url(#clipPath2)" cx="261.384" cy="555.024" stroke="none"/>
    </g>
    <g text-rendering="geometricPrecision" stroke-miterlimit="1.45" shape-rendering="geometricPrecision" transform="matrix(1,0,0,1,74,-232)" stroke-linecap="butt">
      <circle fill="none" r="31.384" clip-path="url(#clipPath2)" cx="261.384" cy="555.024"/>
    </g>
    <g fill="white" text-rendering="geometricPrecision" shape-rendering="geometricPrecision" transform="matrix(1,0,0,1,74,-232)" stroke="white">
      <circle r="31.384" clip-path="url(#clipPath2)" cx="249.456" cy="398.864" stroke="none"/>
    </g>
    <g text-rendering="geometricPrecision" stroke-miterlimit="1.45" shape-rendering="geometricPrecision" transform="matrix(1,0,0,1,74,-232)" stroke-linecap="butt">
      <circle fill="none" r="31.384" clip-path="url(#clipPath2)" cx="249.456" cy="398.864"/>
    </g>
    <g fill="white" text-rendering="geometricPrecision" shape-rendering="geometricPrecision" transform="matrix(1,0,0,1,74,-232)" stroke="white">
      <circle r="31.384" clip-path="url(#clipPath2)" cx="249.456" cy="278.544" stroke="none"/>
    </g>
    <g text-rendering="geometricPrecision" stroke-miterlimit="1.45" shape-rendering="geometricPrecision" transform="matrix(1,0,0,1,74,-232)" stroke-linecap="butt">
      <circle fill="none" r="31.384" clip-path="url(#clipPath2)" cx="249.456" cy="278.544"/>
      <text x="231.992" font-size="16px" y="283.744" clip-path="url(#clipPath2)" font-family="'CMU Sans Serif'" stroke="none" xml:space="preserve">Done</text>
    </g>
    <g fill="white" text-rendering="geometricPrecision" shape-rendering="geometricPrecision" transform="matrix(1,0,0,1,74,-232)" stroke="white">
      <circle r="31.384" clip-path="url(#clipPath2)" cx="500.752" cy="519.824" stroke="none"/>
    </g>
    <g text-rendering="geometricPrecision" stroke-miterlimit="1.45" shape-rendering="geometricPrecision" transform="matrix(1,0,0,1,74,-232)" stroke-linecap="butt">
      <circle fill="none" r="31.384" clip-path="url(#clipPath2)" cx="500.752" cy="519.824"/>
    </g>
    <g fill="white" text-rendering="geometricPrecision" shape-rendering="geometricPrecision" transform="matrix(1,0,0,1,74,-232)" stroke="white">
      <circle r="31.384" clip-path="url(#clipPath2)" cx="288.488" cy="735.864" stroke="none"/>
    </g>
    <g text-rendering="geometricPrecision" stroke-miterlimit="1.45" shape-rendering="geometricPrecision" transform="matrix(1,0,0,1,74,-232)" stroke-linecap="butt">
      <circle fill="none" r="31.384" clip-path="url(#clipPath2)" cx="288.488" cy="735.864"/>
    </g>
    <g fill="white" text-rendering="geometricPrecision" shape-rendering="geometricPrecision" transform="matrix(1,0,0,1,74,-232)" stroke="white">
      <circle r="31.384" clip-path="url(#clipPath2)" cx="-26.648" cy="559.384" stroke="none"/>
    </g>
    <g text-rendering="geometricPrecision" stroke-miterlimit="1.45" shape-rendering="geometricPrecision" transform="matrix(1,0,0,1,74,-232)" stroke-linecap="butt">
      <circle fill="none" r="31.384" clip-path="url(#clipPath2)" cx="-26.648" cy="559.384"/>
      <path fill="none" d="M156.688 309.928 L156.688 359.48" clip-path="url(#clipPath2)"/>
      <path d="M156.688 367.48 L161.688 355.48 L156.688 358.48 L151.688 355.48 Z" clip-path="url(#clipPath2)" stroke="none"/>
      <text x="79.6217" y="319.6119" clip-path="url(#clipPath2)" fill="purple" font-family="'CMU Sans Serif'" stroke="none" xml:space="preserve">user enters</text>
      <text x="83.1558" y="333.412" clip-path="url(#clipPath2)" fill="purple" font-family="'CMU Sans Serif'" stroke="none" xml:space="preserve">username</text>
      <text x="71.1017" y="347.2121" clip-path="url(#clipPath2)" fill="purple" font-family="'CMU Sans Serif'" stroke="none" xml:space="preserve">and password;</text>
      <text x="75.9317" y="361.0122" clip-path="url(#clipPath2)" fill="purple" font-family="'CMU Sans Serif'" stroke="none" xml:space="preserve">send LOGIN</text>
      <path fill="none" d="M174.1648 424.9316 L239.4523 522.3116" clip-path="url(#clipPath2)"/>
      <path d="M243.9073 528.9564 L241.3778 516.2049 L238.8954 521.481 L233.0718 521.7736 Z" clip-path="url(#clipPath2)" stroke="none"/>
      <text x="164.7017" xml:space="preserve" y="469.5122" clip-path="url(#clipPath2)" font-family="'CMU Sans Serif'" stroke="none">receive</text>
      <text x="173.0297" xml:space="preserve" y="483.3123" clip-path="url(#clipPath2)" font-family="'CMU Sans Serif'" stroke="none">OK</text>
      <path fill="none" d="M258.9937 523.7311 L252.4555 438.1336" clip-path="url(#clipPath2)"/>
      <path d="M251.8463 430.1568 L247.7747 442.5028 L252.5317 439.1307 L257.7457 441.7412 Z" clip-path="url(#clipPath2)" stroke="none"/>
      <text x="261.0917" xml:space="preserve" y="459.492" clip-path="url(#clipPath2)" font-family="'CMU Sans Serif'" stroke="none">quit command</text>
      <text x="269.7197" xml:space="preserve" y="473.2921" clip-path="url(#clipPath2)" font-family="'CMU Sans Serif'" stroke="none">send QUIT</text>
      <path fill="none" d="M249.456 367.48 L249.456 317.928" clip-path="url(#clipPath2)"/>
      <path d="M249.456 309.928 L244.456 321.928 L249.456 318.928 L254.456 321.928 Z" clip-path="url(#clipPath2)" stroke="none"/>
      <text x="256.1079" xml:space="preserve" y="337.152" clip-path="url(#clipPath2)" font-family="'CMU Sans Serif'" stroke="none">receive</text>
      <text x="264.4359" xml:space="preserve" y="350.9521" clip-path="url(#clipPath2)" font-family="'CMU Sans Serif'" stroke="none">OK</text>
      <path fill="none" d="M291.6461 563.2959 L293.2322 563.7295 L324.5298 568.6906 L355.2768 569.9072 L385.4731 567.3795 L415.1188 561.1072 L444.2138 551.0906 L467.0261 540.093 L467.1109 540.0399" clip-path="url(#clipPath2)"/>
      <path d="M474.2412 536.4125 L461.2786 537.3972 L466.2196 540.4933 L465.8129 546.3101 Z" clip-path="url(#clipPath2)" stroke="none"/>
      <text x="378.9097" y="576.112" clip-path="url(#clipPath2)" fill="purple" font-family="'CMU Sans Serif'" stroke="none" xml:space="preserve">user enters</text>
      <text x="350.6255" y="589.9121" clip-path="url(#clipPath2)" fill="purple" font-family="'CMU Sans Serif'" stroke="none" xml:space="preserve">order_new command,</text>
      <text x="354.5616" y="603.7122" clip-path="url(#clipPath2)" fill="purple" font-family="'CMU Sans Serif'" stroke="none" xml:space="preserve">send ORDER_NEW</text>
      <path fill="none" d="M469.6914 524.3915 L300.3467 549.2944" clip-path="url(#clipPath2)"/>
      <path d="M292.4318 550.4583 L305.0316 553.6592 L301.336 549.1489 L303.5766 543.7656 Z" clip-path="url(#clipPath2)" stroke="none"/>
      <text x="341.6157" xml:space="preserve" y="515.1721" clip-path="url(#clipPath2)" font-family="'CMU Sans Serif'" stroke="none">receive OK;</text>
      <text x="311.2015" xml:space="preserve" y="528.9721" clip-path="url(#clipPath2)" font-family="'CMU Sans Serif'" stroke="none">display success message</text>
      <path fill="none" d="M474.0098 503.4137 L467.2181 499.6554 L450.8383 492.2035 L434.7165 486.5064 L418.8527 482.5643 L403.2471 480.377 L387.8995 479.9447 L372.8099 481.2672 L357.9785 484.3447 L343.4051 489.177 L329.0897 495.7643 L315.0325 504.1064 L301.2332 514.2035 L287.8716 525.8983 L287.8018 525.9698" clip-path="url(#clipPath2)"/>
      <path d="M282.1999 531.6811 L294.1723 526.6153 L288.502 525.2559 L287.0331 519.613 Z" clip-path="url(#clipPath2)" stroke="none"/>
      <text x="369.6096" xml:space="preserve" y="458.8521" clip-path="url(#clipPath2)" font-family="'CMU Sans Serif'" stroke="none">receive ERROR;</text>
      <text x="356.4095" xml:space="preserve" y="472.6521" clip-path="url(#clipPath2)" font-family="'CMU Sans Serif'" stroke="none">display error message</text>
      <path fill="none" d="M235.6855 572.9826 L221.2636 584.15 L205.865 598.0143 L193.5741 611.4128 L184.391 624.3455 L178.3157 636.8125 L175.3481 648.8137 L175.4882 660.3491 L178.7361 671.4187 L185.0917 682.0225 L194.555 692.1606 L207.1261 701.8328 L222.805 711.0393 L241.5916 719.78 L251.1704 723.4003" clip-path="url(#clipPath2)"/>
      <path d="M258.6538 726.2286 L249.1964 717.309 L250.235 723.0468 L245.661 726.6632 Z" clip-path="url(#clipPath2)" stroke="none"/>
      <text x="110.0198" y="695.2759" clip-path="url(#clipPath2)" fill="purple" font-family="'CMU Sans Serif'" stroke="none" xml:space="preserve">user enters</text>
      <text x="76.4256" y="709.076" clip-path="url(#clipPath2)" fill="purple" font-family="'CMU Sans Serif'" stroke="none" xml:space="preserve">item_update command;</text>
      <text x="80.7156" y="722.8761" clip-path="url(#clipPath2)" fill="purple" font-family="'CMU Sans Serif'" stroke="none" xml:space="preserve">send ITEM_UPDATE</text>
      <path fill="none" d="M265.9777 713.9808 L258.989 705.6161 L251.6602 695.1581 L245.5837 684.5125 L240.7593 673.6791 L237.1871 662.6581 L234.867 651.4495 L233.7991 640.0532 L233.9833 628.4691 L235.4197 616.6974 L238.1082 604.7381 L242.049 592.5911 L243.1742 589.9183" clip-path="url(#clipPath2)"/>
      <path d="M246.2783 582.545 L237.0139 591.6648 L242.7862 590.8399 L246.2304 595.545 Z" clip-path="url(#clipPath2)" stroke="none"/>
      <text x="245.1757" xml:space="preserve" y="640.032" clip-path="url(#clipPath2)" font-family="'CMU Sans Serif'" stroke="none">receive OK;</text>
      <text x="237.3277" xml:space="preserve" y="653.8321" clip-path="url(#clipPath2)" font-family="'CMU Sans Serif'" stroke="none">display success</text>
      <text x="253.7618" xml:space="preserve" y="667.6322" clip-path="url(#clipPath2)" font-family="'CMU Sans Serif'" stroke="none">message</text>
      <path fill="none" d="M305.6336 709.5721 L311.5478 697.7386 L316.3481 685.4628 L319.7052 673.4033 L321.6191 661.56 L322.0899 649.933 L321.1175 638.5224 L318.7019 627.3281 L314.8431 616.35 L309.5412 605.5883 L302.7961 595.0428 L294.6078 584.7136 L291.0016 580.9271" clip-path="url(#clipPath2)"/>
      <path d="M285.4843 575.1341 L290.1396 587.272 L291.6913 581.6512 L297.3809 580.3753 Z" clip-path="url(#clipPath2)" stroke="none"/>
      <text x="320.5296" xml:space="preserve" y="678.432" clip-path="url(#clipPath2)" font-family="'CMU Sans Serif'" stroke="none">receive ERROR;</text>
      <text x="329.8957" xml:space="preserve" y="692.2321" clip-path="url(#clipPath2)" font-family="'CMU Sans Serif'" stroke="none">display error</text>
      <text x="340.1618" xml:space="preserve" y="706.0322" clip-path="url(#clipPath2)" font-family="'CMU Sans Serif'" stroke="none">message</text>
      <path fill="none" d="M237.2028 535.0708 L224.9325 526.0056 L206.7547 514.6639 L188.6088 505.4338 L170.495 498.3155 L152.4131 493.3088 L134.3631 490.4138 L116.3451 489.6305 L98.3591 490.9588 L80.4051 494.3988 L62.483 499.9505 L44.5928 507.6138 L26.7347 517.3889 L8.9085 529.2756 L3.2058 533.7617" clip-path="url(#clipPath2)"/>
      <path d="M-3.0817 538.7081 L9.4411 535.2183 L3.9918 533.1434 L3.2582 527.3588 Z" clip-path="url(#clipPath2)" stroke="none"/>
      <text x="-6.2042" y="462.3159" clip-path="url(#clipPath2)" fill="purple" font-family="'CMU Sans Serif'" stroke="none" xml:space="preserve">user enters</text>
      <text x="-41.6404" y="476.116" clip-path="url(#clipPath2)" fill="purple" font-family="'CMU Sans Serif'" stroke="none" xml:space="preserve">order_update command;</text>
      <text x="-41.0104" y="489.9161" clip-path="url(#clipPath2)" fill="purple" font-family="'CMU Sans Serif'" stroke="none" xml:space="preserve">send ORDER_UPDATE</text>
      <path fill="none" d="M4.7467 558.6868 L117.3526 556.1861 L221.9829 555.3419" clip-path="url(#clipPath2)"/>
      <path d="M229.9826 555.2773 L217.9427 550.3744 L220.9829 555.35 L218.0234 560.374 Z" clip-path="url(#clipPath2)" stroke="none"/>
      <text x="67.5654" xml:space="preserve" y="532.4228" clip-path="url(#clipPath2)" font-family="'CMU Sans Serif'" stroke="none">receive OK;</text>
      <text x="37.1512" xml:space="preserve" y="546.2229" clip-path="url(#clipPath2)" font-family="'CMU Sans Serif'" stroke="none">display success message</text>
      <path fill="none" d="M1.6569 572.9577 L9.6222 576.4264 L27.7288 583.0632 L45.8164 588.4438 L63.8849 592.5682 L81.9345 595.4363 L99.965 597.0481 L117.9765 597.4037 L135.969 596.5031 L153.9425 594.3463 L171.8969 590.9332 L189.8324 586.2638 L207.7488 580.3382 L225.6462 573.1564 L226.2682 572.8628" clip-path="url(#clipPath2)"/>
      <path d="M233.5029 569.4482 L220.5168 570.0484 L225.3639 573.2896 L224.785 579.0917 Z" clip-path="url(#clipPath2)" stroke="none"/>
      <text x="25.4879" xml:space="preserve" y="615.9539" clip-path="url(#clipPath2)" font-family="'CMU Sans Serif'" stroke="none">receive ERROR;</text>
      <text x="12.2878" xml:space="preserve" y="629.754" clip-path="url(#clipPath2)" font-family="'CMU Sans Serif'" stroke="none">display error message</text>
    </g>
  </g>
</svg>
